<?xml version="1.0" encoding="UTF-8" standalone="no"?>
<!-- Created with Inkscape (http://www.inkscape.org/) -->

<svg
   xmlns:dc="http://purl.org/dc/elements/1.1/"
   xmlns:cc="http://creativecommons.org/ns#"
   xmlns:rdf="http://www.w3.org/1999/02/22-rdf-syntax-ns#"
   xmlns:svg="http://www.w3.org/2000/svg"
   xmlns="http://www.w3.org/2000/svg"
   xmlns:sodipodi="http://sodipodi.sourceforge.net/DTD/sodipodi-0.dtd"
   xmlns:inkscape="http://www.inkscape.org/namespaces/inkscape"
   version="1.1"
   width="100%"
   height="100%"
   viewbox= "0 0 1632 918" 
   id="svg2985"
   inkscape:version="0.48.5 r10040"
   sodipodi:docname="Tipo_Sonidero_con_alitas_Plano.svg">
  <sodipodi:namedview
     pagecolor="#ffffff"
     bordercolor="#666666"
     borderopacity="1"
     objecttolerance="10"
     gridtolerance="10"
     guidetolerance="10"
     inkscape:pageopacity="0"
     inkscape:pageshadow="2"
     inkscape:window-width="1600"
     inkscape:window-height="838"
     id="namedview106"
     showgrid="false"
     inkscape:zoom="8.0692117"
     inkscape:cx="1134.3151"
     inkscape:cy="405.51573"
     inkscape:window-x="-8"
     inkscape:window-y="-8"
     inkscape:window-maximized="1"
     inkscape:current-layer="svg2985" />
  <metadata
     id="metadata2991">
    <rdf:RDF>
      <cc:Work
         rdf:about="">
        <dc:format>image/svg+xml</dc:format>
        <dc:type
           rdf:resource="http://purl.org/dc/dcmitype/StillImage" />
        <dc:title />
      </cc:Work>
    </rdf:RDF>
  </metadata>
  <defs
     id="defs2989" />
  <g
     id="Marco"
     style="display:inline">
    <g
       id="g3827" />
    <g
       id="g3833" />
    <path
       d="M 437.52147,612.86006 C 384.36426,677.10141 353.63113,730.58246 254.63791,768.17455 104.36707,821.64658 140.417,608.10218 358.77354,610.51679 c 137.33371,-4.97989 317.92336,32.83428 474.62132,117.60944 78.02785,-83.83991 263.19204,-154.8744 420.18294,-137.91566 270.4152,26.88192 255.0018,360.86843 -29.4927,75.61875 -133.9514,-153.06077 -163.0806,-319.15935 39.7605,-440.14203 61.0533,-38.47752 220.1489,-75.57294 172.6084,27.63487 C 1367.3951,383.33681 928.54669,308.85131 841.49767,238.43329 709.26814,301.18363 557.76099,329.28448 382.80291,340.92306 75.21854,330.90974 169.0491,115.5047 346.7474,217.35976 c 108.48606,70.13247 148.37194,166.66278 139.32251,260.65108 -4.37091,45.39675 -21.70468,92.78581 -48.54844,134.84922 -22.45656,-1.308 -41.44677,0.26261 -63.88585,-4.17537 31.97004,-40.43284 56.53503,-85.50005 56.81927,-123.38329 13.09091,-83.3241 -73.18136,-255.17644 -176.25616,-238.1544 43.36816,87.93316 390.44065,12.5216 556.88409,-110.73486 -36.41398,12.55461 -142.79613,66.0807 -260.04541,66.0807 60.62657,-22.25673 176.84437,-87.48342 277.29062,-82.61045 C 801.052,123.92433 550.06767,177.84438 465.75751,166.0921 565.092,155.93021 892.01221,0 816.26456,101.13574 c 2.91164,-4.87309 21.04594,1.80175 19.02723,15.87113 -3.66231,-4.78649 7.28014,-21.26027 17.46354,-17.44262 -69.92304,-99.231768 245.47857,61.15035 317.79487,66.62285 -63.8485,15.75532 -296.70505,-42.10167 -327.14911,-45.78023 99.11005,-2.85209 196.56421,59.78052 251.83211,80.04054 -14.1345,4.36208 -130.76081,-12.09774 -232.18274,-64.77018 227.46514,145.15523 518.93564,147.75636 512.00344,102.33879 -12.2129,-23.42312 -447.69146,175.86635 7.7143,484.20642 -63.6224,-157.26816 -383.789,-25.21138 -513.38136,81.07494 90.57613,-42.47154 134.83756,-79.981 254.43926,-91.69011 -12.2034,21.23379 -17.4162,24.25053 -22.0329,35.90491 -93.3551,5.31133 -131.74136,26.21617 -185.99699,52.71022 26.03303,-9.10168 71.43679,-34.11025 168.94719,-36.08589 -10.7385,9.01431 -15.0647,15.64538 -27.9466,25.08659 -48.1864,0 -121.89755,11.38675 -224.71611,45.91262 -51.53235,-14.85212 -95.57798,-33.94431 -207.63221,-33.94431 0,0 -16.20909,-17.22545 -36.91131,-32.16566 63.73431,0.35049 145.95378,27.7616 160.2117,33.73856 -21.71057,-8.23287 -68.17229,-29.87498 -202.12105,-55.25213 -8.03144,-14.68309 -27.69334,-28.17896 -38.20651,-39.5974 62.71473,10.34328 175.16158,47.83258 281.72058,97.10677 C 727.1031,764.03587 623.87741,709.87737 523.431,683.35255 391.99266,643.11427 220.28359,669.83008 230.84065,717.97216 c 17.49533,11.25539 90.1753,-42.7388 142.79497,-109.28747"
       id="path3856"
       style="fill:#afe9dd;fill-opacity:1;stroke:none;display:inline" />
    <path
       d="m 352.95822,288.39372 c -30.17399,-1.65777 -82.12564,-7.03364 -101.09797,-41.74365 -65.52985,26.63755 99.34,95.7815 140.25373,93.60232 -15.61932,-25.23666 -25.75184,-37.21849 -39.15576,-51.85867 z"
       id="path3814"
       style="fill:#6cd7c1;fill-opacity:1;stroke:none;display:inline" />
    <path
       d="M 266.89341,193.02124 C 348.04257,192.88867 441.88335,293.3164 440.60336,322.60526 372.82233,258.36319 349.74424,238.48625 266.89341,193.02124 z"
       id="path3820"
       style="fill:#daf5f0;fill-opacity:1;stroke:none;display:inline" />
    <path
       d="m 328.72657,215.32616 c 27.31345,17.92464 44.43607,28.98452 71.37529,55.7327 -17.57345,-28.85746 -37.63277,-39.9859 -71.37529,-55.7327 z"
       id="path3836"
       style="fill:#ffffff;stroke:none;display:inline" />
    <path
       d="m 392.94111,664.0113 c -4.62068,5.95445 -6.1039,7.58006 -12.51421,14.13105 -32.28295,-8.98862 -139.88824,96.0227 -149.61692,39.95635 20.61678,9.23054 65.15715,-25.89886 89.81919,-49.7652 27.69608,-3.42388 42.52081,-3.46004 72.31194,-4.3222 z"
       id="path3812"
       style="fill:#6cd7c1;fill-opacity:1;stroke:none;display:inline" />
    <path
       d="m 645.17898,651.37926 c -38.56923,-6.98234 -138.29461,-8.496 -128.32795,28.41325 131.34656,37.98723 186.06445,71.99899 272.31721,125.42735 -100.34169,-47.92345 -229.20503,-75.21067 -176.89411,-45.30826 42.85656,9.553 105.61529,30.0023 132.28171,42.41648 -30.05414,-10.99573 -140.7389,-9.51398 -52.03284,0.85289 61.31855,6.22887 97.54843,17.25889 139.22004,30.34578 -0.14237,-33.73674 3.20975,-49.11869 0.47676,-107.5966 C 765.83277,693.777 768.5199,692.74021 645.17898,651.37926 z"
       id="path3809"
       style="fill:#6cd7c1;fill-opacity:1;stroke:none;display:inline" />
    <path
       d="m 413.06621,614.31835 c -52.95823,17.01622 -91.69842,5.19852 -172.4237,25.24786 44.47883,-22.67941 85.75368,-29.94185 172.4237,-25.24786 z"
       id="path3815"
       style="fill:#daf5f0;fill-opacity:1;stroke:none;display:inline" />
    <path
       d="m 402.48825,614.99352 c -28.68552,4.40468 -58.25006,6.246 -89.43008,3.72625 22.83811,-4.67066 54.52545,-5.74847 89.43008,-3.72625 z"
       id="path3865"
       style="fill:#ffffff;stroke:none;display:inline" />
    <path
       d="m 836.79258,114.86081 c 1.07147,24.25991 1.11255,44.77294 3.77712,122.40511 -28.37456,17.32102 -148.52422,62.36772 -214.09347,71.372 126.04086,-50.64493 91.00045,-91.37317 79.5522,-110.06401 58.22145,-26.95542 66.78422,-33.99427 107.90858,-64.29751 -80.10565,32.24875 -99.63203,41.84387 -179.77616,59.317 16.37281,-19.08479 43.16118,-35.90002 79.42133,-56.31981 -32.26887,12.60852 -70.81226,16.21838 -143.49256,25.05757 36.55692,-34.97999 316.86767,-150.765344 246.24661,-61.82753 17.21239,-5.556875 18.44993,6.5183 20.45635,14.35718 z"
       id="path3038"
       style="fill:#6cd7c1;fill-opacity:1;stroke:none;display:inline" />
    <path
       d="m 836.49378,120.1743 c -1.95481,-5.30192 1.1381,-22.484592 18.18938,-18.91065 -21.10695,-26.941962 -16.31751,-40.68443 27.0999,-29.794111 69.34944,19.47079 88.08084,28.709361 162.66664,55.641251 65.8208,31.77198 -38.0764,21.04277 -143.24237,-9.71315 56.29838,24.51991 39.37807,15.61182 81.76663,33.751 102.15524,50.23354 -103.08508,-11.89274 -120.53272,-14.89103 96.45843,60.30867 183.00856,93.10721 283.17136,113.90151 114.441,12.68646 60.7234,82.30224 -304.7251,-12.45229 0,-38.89191 -4.78112,-104.84136 -4.39372,-117.53253 z"
       id="path3822"
       style="fill:#daf5f0;fill-opacity:1;stroke:none;display:inline" />
    <path
       d="m 836.6941,119.93054 c -0.25571,16.34961 3.19078,92.37166 3.54788,106.89537 13.31208,-55.39884 76.4578,-38.79595 126.00791,-35.8407 -48.21992,-15.56387 -94.28591,-49.11655 -129.55579,-71.05467 z"
       id="path3833"
       style="fill:#ffffff;stroke:none;display:inline" />
    <path
       d="M 943.038,89.950852 C 863.76895,74.772599 843.99167,80.833248 847.96448,92.405229 820.72974,43.395234 921.03007,79.030522 943.038,89.950852 z"
       id="path3828"
       style="fill:#ffffff;stroke:none;display:inline" />
    <path
       d="m 930.8678,131.27023 c -120.91584,-57.830446 -70.63572,26.69233 -93.8546,-4.79912 -10.14695,-59.861908 85.09787,4.84628 93.8546,4.79912 z"
       id="path3830"
       style="fill:#ffffff;stroke:none;display:inline" />
    <path
       d="m 1214.8733,259.95229 c -21.2818,18.85572 -41.7606,34.85775 -59.6359,59.38218 -21.4677,-1.60381 -39.227,-2.59957 -66.2941,-6.05648 72.5641,11.79344 76.6005,-60.53719 125.93,-53.3257 z"
       id="path3816"
       style="fill:#6cd7c1;fill-opacity:1;stroke:none;display:inline" />
    <path
       d="m 831.8825,833.91671 1.1249,-107.63419 c 71.63591,-60.72475 158.42548,-103.37253 229.044,-114.11573 307.5936,-65.09207 -138.31902,70.53799 -193.75679,193.34559 56.28778,-26.01268 105.22721,-51.73602 124.17365,-58.02797 57.20114,-24.61464 -15.79548,17.84862 -77.31088,53.81591 24.9144,-8.834 46.83831,-14.24118 66.92566,-20.17383 69.26816,-14.7387 -80.90669,29.42827 -150.20054,52.79022 z"
       id="path3817"
       style="fill:#daf5f0;fill-opacity:1;stroke:none;display:inline" />
    <path
       d="m 832.85848,834.45887 0.70141,-89.33829 c 2.18566,43.26613 5.47391,53.73781 32.77958,61.39383 -14.28259,14.72673 -3.66237,17.05811 5.48669,15.63443 -12.58505,4.23241 -24.73578,4.78393 -38.96768,12.31003 z"
       id="path3835"
       style="fill:#ffffff;stroke:none;display:inline" />
    <path
       d="m 1242.8042,239.61339 c 65.456,-48.64523 251.0354,-93.07042 189.5943,17.73844 9.9422,-92.62636 -136.6572,-33.30331 -189.5943,-17.73844 z"
       id="path3849"
       style="fill:#daf5f0;fill-opacity:1;stroke:none;display:inline" />
    <path
       d="m 1358.7799,193.92535 c 31.5514,-1.52899 75.308,0.70421 81.253,30.75157 11.0474,-43.96076 -69.8382,-42.47319 -81.253,-30.75157 z"
       id="path3837"
       style="fill:#ffffff;stroke:none;display:inline" />
    <path
       d="m 1374.6316,237.17835 c 4.2722,17.13486 -35.7126,27.93941 -74.3815,27.16248 -14.8254,9.39788 -66.0818,54.28016 -72.8808,59.92744 60.7786,4.94432 202.1097,-65.19378 147.2623,-87.08992 z"
       id="path3847"
       style="fill:#6cd7c1;fill-opacity:1;stroke:none;display:inline" />
    <path
       d="m 1229.5865,589.2251 c -102.4563,15.34994 137.1243,-15.15926 216.0039,141.52677 -13.0538,-94.91486 -135.477,-139.57093 -216.0039,-141.52677 z"
       id="path3824"
       style="fill:#daf5f0;fill-opacity:1;stroke:none;display:inline" />
    <path
       d="m 1245.4703,592.03942 c 14.376,-1.60374 107.0259,15.59446 112.3159,37.78147 -57.3509,-24.1425 -142.5758,-34.27728 -112.3159,-37.78147 z"
       id="path3834"
       style="fill:#ffffff;stroke:none;display:inline" />
    <path
       d="m 1214.3032,652.16284 c 28.637,-3.28511 53.6904,-2.82215 78.7731,1.58209 17.6327,17.08255 61.9964,52.02838 89.193,67.81996 24.5709,65.38081 -145.5907,-39.11744 -167.9661,-69.40205 z"
       id="path3810"
       style="fill:#6cd7c1;fill-opacity:1;stroke:none;display:inline" />
    <path
       d="m 1204.4496,351.33864 c -51.6851,88.01433 -34.1761,158.65516 25.4821,237.55853 l -13.9328,-0.96088 c -61.5218,-65.70126 -78.5856,-174.97594 -11.5493,-236.59765 z"
       id="path4231"
       style="fill:#daf5f0;fill-opacity:1;stroke:none" />
    <path
       d="m 1172.3629,484.16848 c 10.3925,28.00236 27.5203,68.47008 55.8187,102.98749 -25.1638,-17.50449 -52.4371,-67.47585 -55.8187,-102.98749 z"
       id="path4233"
       style="fill:#ffffff;stroke:none" />
    <path
       d="m 350.33452,284.69277 c 12.55616,13.69752 25.9358,30.0027 42.69785,57.01887 l -8.18994,0.004 c -11.26359,-25.3172 -15.53734,-29.99903 -34.50791,-57.0228 z"
       id="path3853"
       style="fill:#000000;stroke:none" />
    <path
       d="m 317.08922,668.69152 c 23.44479,-2.81394 50.43923,-4.26263 80.63571,-4.47976 l -4.09022,6.42749 c -19.89594,-2.94904 -47.39232,-3.11665 -76.54549,-1.94773 z"
       id="path3855"
       style="fill:#000000;stroke:none" />
    <path
       d="m 1302.9359,262.69237 c -23.7533,17.52146 -50.5967,39.85408 -77.3627,63.42604 l 10.5236,0 c 14.2862,-17.62112 41.1241,-43.42615 66.8391,-63.42604 z"
       id="path3858"
       style="fill:#000000;stroke:none" />
    <path
       d="m 1294.7117,654.13146 c -21.1341,-4.16902 -51.3724,-5.31871 -83.4039,-1.7071 l 5.1213,5.85291 c 29.617,-6.03291 42.2983,-6.83621 78.2826,-4.14581 z"
       id="path3860"
       style="fill:#000000;stroke:none" />
  </g>
  <g
     id="Letra_S"
     style="display:inline">
    <path
       d="m 1105.7906,425.28089 c 35.2639,-84.24768 -65.1894,-62.21918 -9.394,10.73537 34.8711,36.75052 76.5288,79.00539 54.7987,135.64936 -15.711,46.24609 -65.6809,65.52456 -112.2925,33.23859 -37.2369,-35.22747 -32.8286,-108.74998 43.3268,-130.39672 65.5765,-24.79904 167.5142,-54.36004 246.7474,-50.22295 l 87.1951,112.51998 c -94.048,-21.19115 -213.213,-50.73877 -330.1645,-12.06244 -41.3423,19.92823 -8.0208,59.35751 18.4741,36.14346 22.9258,-33.16739 -2.853,-51.83061 -45.8154,-101.51244 -24.9469,-26.25558 -43.9382,-108.92858 19.5721,-133.34222 77.7548,-10.488 107.3626,55.65009 27.5522,99.25001 z"
       id="path3014"
       style="fill:#afe9dd;fill-opacity:1;stroke:none;display:inline" />
    <path
       d="m 1107.3884,518.54682 c 15.756,-5.17061 27.6966,-7.67165 43.8086,-9.19509 2.708,4.00594 4.7813,12.76718 4.9868,15.32483 -16.7232,-1.51663 -26.5716,-0.77219 -44.406,2.20561 z"
       id="path3796"
       style="fill:#6cd7c1;fill-opacity:1;stroke:none;display:inline" />
    <path
       d="m 1328.3104,427.33018 c -45.5446,-2.15697 -128.287,11.67036 -169.6474,26.01084 -86.45,25.18277 145.5491,-40.28936 243.4991,69.98246 -31.2145,-37.91785 -50.4171,-64.29936 -73.8517,-95.9933 z"
       id="path3826"
       style="fill:#c5efe6;fill-opacity:1;stroke:none;display:inline" />
    <path
       d="m 1233.7427,435.36665 c 28.1762,-3.54996 56.8423,-6.92182 93.0649,-7.54581 14.7236,18.43613 29.3319,37.1029 43.3186,57.01277 -41.4885,-54.04812 -85.2108,-50.92294 -136.3835,-49.46696 z"
       id="path3843"
       style="fill:#ffffff;stroke:none;display:inline" />
    <path
       d="m 1082.2859,375.11438 c -18.2008,31.07548 -10.732,71.18799 32.172,82.97012 -40.4265,-36.14066 -40.5425,-64.64977 -32.172,-82.97012 z"
       id="path3851"
       style="fill:#daf5f0;fill-opacity:1;stroke:none;display:inline" />
    <path
       d="m 1095.9749,620.45576 c -14.7203,1.28987 -29.3547,-0.40921 -48.4973,-10.36576 l -1.2219,12.62563 c 14.7508,10.09237 44.8234,0.44748 49.7192,-2.25987 z"
       id="path3829"
       style="fill:#91e1d0;fill-opacity:1;stroke:none;display:inline" />
    <path
       d="m 1150.0753,509.57955 c 8.7004,-1.85753 23.018,-2.11013 34.591,-3.14692 6.9058,20.86751 16.3917,36.60803 27.8435,55.84232 -28.5539,-36.65604 -42.2324,-30.17428 -55.8456,-31.31571 -0.7187,-7.63074 -1.3316,-14.25313 -6.5889,-21.37969 z"
       id="path3798"
       style="fill:#6cd7c1;fill-opacity:1;stroke:none;display:inline" />
    <path
       d="m 1124.8062,410.10771 c 38.7504,-24.95356 36.6793,-79.36327 -28.941,-83.12386 34.2528,8.96156 55.3565,42.74256 28.941,83.12386 z"
       id="path4045"
       style="fill:#daf5f0;fill-opacity:1;stroke:none;display:inline" />
    <path
       d="m 1138.658,394.97084 c 13.1148,-34.14954 1.6917,-50.89577 -22.4602,-63.29013 29.3922,9.369 43.7426,31.35063 22.4602,63.29013 z"
       id="path3852"
       style="fill:#ffffff;fill-opacity:1;stroke:none;display:inline" />
    <path
       d="m 1144.9096,392.6713 c -7.3129,8.47365 -13.404,16.62867 -26.1728,25.76975 l -1.1997,15.65319 c 12.4807,-11.8445 21.5559,-24.02467 27.3725,-41.42294 z"
       id="path3808"
       style="fill:#6cd7c1;fill-opacity:1;stroke:none;display:inline" />
    <path
       d="m 1152.5998,509.49355 c 9.409,-1.92752 21.1226,-2.12655 32.5393,-2.54827 -15.4432,1.96463 -28.817,-0.97148 -29.207,17.83786 -0.5174,-5.09653 -1.2653,-10.19306 -3.3323,-15.28959 z"
       id="path3082"
       style="fill:#1d6658;fill-opacity:1;stroke:none" />
  </g>
  <g
     id="Letra_I"
     style="display:inline">
    <path
       d="m 1040.6762,278.68235 -28.4201,21.76975 -11.7174,-2.38511 c 9.8182,-10.70434 26.8647,-19.23482 40.1375,-19.38464 z"
       id="path3790"
       style="fill:#6cd7c1;fill-opacity:1;stroke:none;display:inline" />
    <path
       d="m 1000.2874,628.32704 1.1042,27.97392 41.9609,-9.20194 -0.3681,-29.44624 c -16.5626,-0.14492 -25.1183,0.94618 -42.697,10.67426 z"
       id="path3845"
       style="fill:#91e1d0;fill-opacity:1;stroke:none;display:inline" />
    <path
       d="m 1010.0997,640.69093 44.5708,-8.21041 1.1729,-195.87688 -53.9541,3.51875 z"
       id="path3045"
       style="fill:#afe9dd;fill-opacity:1;stroke:none;display:inline" />
    <path
       d="m 1046.4601,278.26006 c -66.523,-4.27692 -49.7598,144.09588 -17.5938,144.2686 30.6609,3.25351 80.152,-135.49592 17.5938,-144.2686 z"
       id="path3047"
       style="fill:#afe9dd;fill-opacity:1;stroke:none;display:inline" />
    <path
       d="m 1029.1176,283.06276 c 49.0088,-17.93257 55.4884,51.82714 30.9284,93.90959 18.7167,-76.07944 -81.93873,-62.47311 -30.9284,-93.90959 z"
       id="path4041"
       style="fill:#d3f3ec;fill-opacity:1;stroke:none;display:inline" />
    <path
       d="m 1054.4811,438.9023 -2.6502,134.3501 c -4.537,-53.64714 -4.7851,-65.97152 -10.3873,-122.83887 l -14.3316,-0.20079 -0.4901,-9.67818 z"
       id="path4043"
       style="fill:#d1f2eb;fill-opacity:1;stroke:none;display:inline" />
    <path
       d="m 1054.6631,400.37509 c -4.6883,7.04942 -11.2277,15.73199 -15.9825,19.44982 1.9932,5.82833 3.5098,10.89334 4.8752,13.74258 -3.5644,-9.61293 10.2171,-20.94797 11.1073,-33.1924 z"
       id="path3848"
       style="fill:#6cd7c1;fill-opacity:1;stroke:none;display:inline" />
    <path
       d="m 1042.9637,284.82405 c -8.3778,8.49993 23.1021,16.43212 28.0083,30.4033 3.3454,-11.37445 -15.8739,-40.25951 -28.0083,-30.4033 z"
       id="path3441"
       style="fill:#ffffff;stroke:none" />
    <path
       d="m 1029.0409,442.38051 23.4874,0 0,41.10292 c -1.7807,-27.17356 0.8819,-42.55777 -23.4874,-41.10292 z"
       id="path4211"
       style="fill:#ffffff;stroke:none" />
  </g>
  <g
     id="Letra_O2"
     style="display:inline">
    <path
       d="m 970.97487,637.4924 -28.07874,14.055 c 12.9659,1.2365 25.64977,1.51916 36.80897,-3.57469 z"
       id="path3823"
       style="fill:#91e1d0;fill-opacity:1;stroke:none;display:inline" />
    <path
       d="m 964.6263,286.02724 c -65.54024,1.40479 -59.1809,373.38279 14.2187,362.96875 69.9836,-5.773 60.8504,-352.35648 -5.875,-361.25 -2.9021,-1.2182 -5.6795,-1.77586 -8.3437,-1.71875 z m 5.875,96.71875 c 30.1319,-1.22144 29.3942,173.20244 4.6875,185.3125 -20.0854,9.43217 -29.5381,-176.39891 -4.6875,-185.3125 z"
       id="path3039"
       style="fill:#afe9dd;fill-opacity:1;stroke:none;display:inline" />
    <path
       d="m 945.8967,304.14752 c 32.5203,-46.96039 66.1209,11.76194 72.8623,97.43065 6.4275,34.33875 3.239,105.26487 -2.354,165.62307 1.0134,-311.57987 -61.37578,-216.00694 -70.5083,-263.05372 z"
       id="path4039"
       style="fill:#d7f4ee;fill-opacity:1;stroke:none;display:inline" />
    <path
       d="m 966.6956,293.19852 c -5.3213,8.75721 22.19129,5.84602 41.5179,56.49999 -0.4519,-35.57908 -33.00544,-69.18249 -41.5179,-56.49999 z"
       id="path4213"
       style="fill:#ffffff;stroke:none" />
    <path
       d="m 958.88553,391.09724 c -8.89397,50.39492 -4.21952,110.86465 3.87428,164.65712 -2.70958,20.77069 -32.00316,-54.5754 -3.87428,-164.65712 z"
       id="path4215"
       style="fill:#d7f4ee;fill-opacity:1;stroke:none" />
    <path
       d="m 959.74648,551.58428 c 2.93356,-7.26398 -3.16405,-29.90586 -8.60556,-49.82167 -2.52217,6.3993 3.77995,53.59524 8.60556,49.82167 z"
       id="path4217"
       style="fill:#ffffff;stroke:none" />
    <path
       d="m 976.18914,649.59815 c -4.84679,-0.64468 -9.93163,-1.55771 -16.49646,-7.35653 l -4.68143,2.22924 c 4.48429,5.02175 16.38574,6.80999 21.17789,5.12729 z"
       id="path4227"
       style="fill:#000000;stroke:none" />
  </g>
  <g
     id="Letra_N2"
     style="display:inline">
    <path
       d="m 890.15653,683.04637 2.69618,23.09227 35.68004,-24.97547 -1.85718,-26.25789 z"
       id="path3825"
       style="fill:#91e1d0;fill-opacity:1;stroke:none;display:inline" />
    <path
       d="m 863.93157,694.44475 -0.73658,30.09726 -30.47116,22.40788 -1.83796,-25.48404 c 9.98379,-9.97105 17.76553,-10.98616 33.0457,-27.0211 z"
       id="path3827"
       style="fill:#91e1d0;fill-opacity:1;stroke:none;display:inline" />
    <path
       d="m 830.81145,725.8668 0.41379,-517.86558 41.17075,30.76563 30.49581,320.20592 -7.0374,-308.47676 42.2249,25.80414 8.6209,377.62032 -42.2834,27.73952 -24.98329,-137.93512 5.29429,148.42217 z"
       id="path3017"
       style="fill:#afe9dd;fill-opacity:1;stroke:none;display:inline" />
    <path
       d="m 831.81749,208.61728 40.62195,30.13677 25.74864,290.69347 C 874.41618,456.84319 852.7179,396.68062 831.10482,337.02928 z"
       id="path3857"
       style="fill:#d7f4ee;fill-opacity:1;stroke:none;display:inline" />
    <path
       d="m 897.01315,252.90896 40.85315,22.38926 5.6872,280.27774 -40.34772,-141.92848 z"
       id="path3859"
       style="fill:#d7f4ee;fill-opacity:1;stroke:none;display:inline" />
    <path
       d="m 835.15939,213.46307 34.69995,28.20546 10.57767,107.93817 -26.05669,-73.35462 z"
       id="path3861"
       style="fill:#ffffff;stroke:none;display:inline" />
    <path
       d="m 902.80436,256.33189 33.40254,20.44364 1.3919,113.47687 -18.40758,-81.25257 z"
       id="path3863"
       style="fill:#ffffff;stroke:none;display:inline" />
    <path
       d="m 832.4178,362.33222 c 3.77053,42.76815 14.71241,70.39238 28.18081,90.32311 -7.46357,-32.03774 -16.86346,-62.13916 -28.18081,-90.32311 z"
       id="path4243"
       style="fill:#d7f4ee;fill-opacity:1;stroke:none" />
    <path
       d="m 901.78595,441.81655 c 3.62478,21.93241 7.61057,34.9977 17.52093,50.96028 -4.905,-20.53551 -7.57466,-32.94541 -17.52093,-50.96028 z"
       id="path4245"
       style="fill:#d7f4ee;fill-opacity:1;stroke:none" />
  </g>
  <g
     id="Letra_E"
     style="display:inline">
    <path
       d="m 762.21407,267.1894 70.50437,-47.22234 -1.38237,137.19568 -38.9672,16.69538 0.24892,81.52361 38.46736,-8.27593 -0.23944,105.10494 -35.78629,-6.89781 0.66871,73.19561 35.28378,13.43179 1.52399,109.08303 -67.37537,-37.75562 z"
       id="path2997"
       style="fill:#2ca089;fill-opacity:1;stroke:none;display:inline" />
  </g>
  <g
     id="Letra_N"
     style="display:inline">
    <path
       d="m 627.15638,302.13863 0.94146,6.61496 13.2806,-2.53169 1.92893,-7.40408 z"
       id="path3784"
       style="fill:#217666;fill-opacity:1;stroke:none;display:inline" />
    <path
       d="m 701.11407,284.96054 0.58064,6.07268 16.88627,-5.15186 -1.15402,-5.719 z"
       id="path3786"
       style="fill:#217666;fill-opacity:1;stroke:none;display:inline" />
    <path
       d="m 637.89966,289.03377 22.14945,373.03767 42.12357,14.49987 -1.90928,-114.35052 26.00376,122.07936 43.84208,19.38629 -7.29739,-451.21671 -49.50539,18.02138 9.80335,253.65746 -41.94397,-245.00422 z"
       id="path2995"
       style="fill:#37c8ab;fill-opacity:1;stroke:none;display:inline" />
  </g>
  <g
     id="Letra_0"
     style="display:inline">
    <path
       d="m 611.69857,303.65502 c -94.88203,8.42732 -92.72129,335.22837 12.0625,350.87499 103.59285,-3.65346 83.20672,-352.17085 -12.0625,-350.87499 z m 2.78125,96.09375 c 31.05724,0.23132 33.5741,176.56181 5.375,180.18749 -32.27802,-3.85418 -40.43145,-167.52901 -7.65625,-179.90624 0.77821,-0.20214 1.53588,-0.2868 2.28125,-0.28125 z"
       id="path2992"
       style="fill:#5fd3bc;fill-opacity:1;stroke:none;display:inline" />
    <path
       d="m 618.06882,653.0188 c -10.94557,-3.11611 -21.68799,-9.93647 -28.31599,-17.48008 -10.39143,-2.30554 -16.35338,-3.91926 -28.71699,-6.2248 12.87122,20.08645 32.68444,23.80972 57.03298,23.70488 z"
       id="path3050"
       style="fill:#6cd7c1;fill-opacity:1;stroke:none;display:inline" />
    <path
       d="m 612.90573,651.58141 c -8.10217,-2.37786 -15.96605,-7.5822 -23.82992,-16.44265 l -7.62559,-2.1447 c 7.67573,9.4322 20.85616,16.66637 31.45551,18.58735 z"
       id="path4225"
       style="fill:#000000;stroke:none" />
  </g>
  <g
     id="Letra_B"
     style="display:inline">
    <path
       d="m 422.78219,526.16558 c 16.9089,2.67185 33.00785,4.8702 47.77916,18.67518 2.90647,-7.87553 5.41731,-16.15848 7.2282,-24.03401 -12.59964,-2.39143 -28.7392,-4.93658 -52.34191,-4.02709 z"
       id="path3006"
       style="fill:#5cd3ba;fill-opacity:1;stroke:none;display:inline" />
    <path
       d="m 406.68826,613.01425 66.30239,40.16147 19.78735,-9.91167 c -19.59442,-10.95702 -31.38847,-22.85533 -48.97004,-28.73525 -8.5687,-2.86569 -25.56864,-1.84006 -37.1197,-1.51455 z"
       id="path3776"
       style="fill:#5cd3ba;fill-opacity:1;stroke:none;display:inline" />
    <path
       d="m 436.99909,324.89312 -18.15032,10.09243 c 25.26108,11.44288 45.47366,28.18827 60.10877,53.94291 -3.95612,-12.73541 -12.49305,-38.76487 -21.94024,-54.79493 25.27128,-0.97026 -0.22215,-6.08457 -4.86959,-9.49717 z"
       id="path3780"
       style="fill:#5cd3ba;fill-opacity:1;stroke:none;display:inline" />
    <path
       d="m 264.84535,456.00974 c -32.79582,38.35147 -66.58773,76.76152 -129.03466,116.85717 111.65203,-79.96648 563.73543,-81.412 300.0341,41.2891 l 66.06255,40.37156 c 144.59845,-90.72413 156.22445,-158.52803 19.26824,-184.42463 155.61877,-66.34243 46.03977,-142.79073 -39.45402,-182.58956 -25.96419,13.78865 -2.72434,2.06691 -65.49438,32.47461 233.4157,85.88967 11.62934,146.91407 -151.38183,136.02175 z"
       id="path3049"
       style="fill:#87decd;stroke:none;display:inline" />
    <path
       d="m 170.58871,552.07653 c 34.53938,-29.71301 69.12041,-59.40222 95.00876,-94.05868 80.35654,1.67697 155.36919,5.82988 235.75786,-38.09068 -35.45533,37.08218 -97.081,80.76471 -233.04061,106.09795 -30.75209,2.76169 -65.71911,14.50605 -97.72601,26.05141 z"
       id="path3063"
       style="fill:#a0e5d7;fill-opacity:1;stroke:none;display:inline" />
    <path
       d="m 266.33854,461.81821 c -20.47777,24.32982 -49.62868,52.60199 -83.4557,82.99965 87.07717,-35.56941 160.99964,-56.22706 190.81509,-86.51886 -33.63454,1.8861 -66.07283,4.16858 -107.35939,3.51921 z"
       id="path3839"
       style="fill:#b5ebe1;fill-opacity:1;stroke:none;display:inline" />
    <path
       d="m 267.07201,459.69196 c 25.07621,12.41136 44.77824,6.4876 64.94444,0.55657 -21.38694,1.1205 -42.84127,1.90406 -64.94444,-0.55657 z"
       id="path3850"
       style="fill:#ffffff;stroke:none;display:inline" />
    <path
       d="m 425.16434,517.57651 c 14.36842,0.23149 32.67017,2.8835 52.47581,6.46098 l -2.04861,7.56409 c -15.8339,-9.2258 -33.45049,-10.13239 -50.4272,-14.02507 z"
       id="path3081"
       style="fill:#000000;stroke:none" />
  </g>
</svg>
