<?xml version="1.0" encoding="UTF-8" standalone="no"?>
<!-- Created with Inkscape (http://www.inkscape.org/) -->
<svg id="svg2985" xmlns:rdf="http://www.w3.org/1999/02/22-rdf-syntax-ns#" xmlns="http://www.w3.org/2000/svg" height="918" width="1632" version="1.1" xmlns:cc="http://creativecommons.org/ns#" xmlns:dc="http://purl.org/dc/elements/1.1/">
 <metadata id="metadata2991">
  <rdf:RDF>
   <cc:Work rdf:about="">
    <dc:format>image/svg+xml</dc:format>
    <dc:type rdf:resource="http://purl.org/dc/dcmitype/StillImage"/>
    <dc:title/>
   </cc:Work>
  </rdf:RDF>
 </metadata>
 <g id="Marco">
  <path id="path3856" d="m437.98 612.53c-53.16 64.24-83.89 117.72-182.88 155.31-150.28 53.47-114.23-160.07 104.13-157.66 137.33-4.9799 317.92 32.834 474.62 117.61 78.028-83.84 263.19-154.87 420.18-137.92 270.42 26.882 255 360.87-29.493 75.619-133.95-153.06-163.08-319.16 39.76-440.14 61.053-38.478 209.12-76.734 172.61 27.635-69 130.02-507.9 55.54-594.94-14.88-132.23 62.75-283.74 90.85-458.7 102.49-307.58-10.01-213.75-225.42-36.05-123.56 108.48 70.13 148.37 166.66 139.32 260.65-4.3709 45.397-23.621 96.251-50.465 138.31l-62.913-5.6464c31.97-40.433 57.479-87.494 57.763-125.38 13.091-83.324-73.181-255.18-176.26-238.15 45.601 92.461 426.99 4.3222 581.09-130.14 230.7 163.53 546.98 168.3 539.76 121.01-12.213-23.423-447.69 175.87 7.7143 484.21-70.813-175.04-459.44 8.3355-549.37 115.67-42.61-37.96-178.67-119.86-309.99-154.54-131.44-40.24-303.15-13.52-292.59 34.62 17.495 11.255 90.175-42.739 142.79-109.29" fill="#aef"/>
  <g fill="#86e7ff">
   <path id="path3006" d="m422.93 525.12c16.909 2.6718 33.283 5.6989 48.054 19.504 2.9065-7.8755 5.5482-15.751 7.3591-23.627-12.6-2.3914-29.349-4.0342-52.951-3.1247z"/>
   <path id="path3776" d="m438.76 615.14 37.3 41.196 18.515-11.272z"/>
   <path id="path3780" d="m437 324.89-14.892 9.5 43.905 17.203-8.9952-17.462c25.271-0.97026-0.22215-6.0846-4.8696-9.4972z"/>
  </g>
  <g fill="#1fd2ff">
   <path id="path3782" d="m658.72 662.93-8.9673-10.088 8.5937 2.6155c2.7548 4.435 2.0478 6.3113 0.37363 7.4728z"/>
   <path id="path3784" d="m637.04 290.12-9.1569 18.63 10.894-2.526z"/>
   <path id="path3786" d="m712.06 271.62-10.585 18.938 11.993-3.5091z"/>
   <path id="path3788" d="m728.17 682.97-15.925-9.555 14.996 5.4411z"/>
  </g>
  <g>
   <path id="path3790" d="m1040.5 276.84-30.887 23.415-10.021-2.3185c9.8182-16.56 27.636-21.333 40.909-21.096z" fill="#00b5e3"/>
   <path id="path3798" d="m1145.5 508.71 41.167-0.95185 10.232 25.224c-17.371-5.0794-34.724-0.63251-50.668 0.55617z" fill="#86e7ff"/>
   <path id="path3808" d="m1142.8 392.06-23.944 24.488-1.0883 14.148c12.481-11.844 18.045-25.418 25.032-38.636z" fill="#1fd2ff"/>
  </g>
  <g fill="#86e7ff">
   <path id="path3810" d="m1213.1 651.69c27.207-6.2834 54.414-6.479 81.62 1.6657 18.068 18.516 72.151 59.83 90.948 70.724-33.194 49.887-77.896-53.787-158.41-55.316z"/>
   <path id="path3812" d="m396.79 663.65c-4.6207 5.9544-9.1841 11.89-15.594 18.441-23.422-15.246-103.99 87.562-142.02 37.664 35.699-9.3591 53.646-29.905 79.01-51.667 27.954-4.9693 48.559-7.439 78.608-4.4378z"/>
   <path id="path3814" d="m351.68 284.71c-40.107-1.0998-65.872-4.7448-92.371-28.998-37.655 47.62 108.89 65.532 121.19 84.791l12.428-0.79326c-9.9394-18.714-24.269-36.989-41.25-54.999z"/>
   <path id="path3816" d="m1215.9 258.88c-21.49 18.439-41.358 37.428-60.693 62.369-21.259-1.3952-41.797-3.0767-68.03-7.5765 59.54-4.0682 89.498-41.806 118.11-55.92z"/>
  </g>
  <g fill="#d0f6ff">
   <path id="path3818" d="m1363.7 233.68c-61.984 14.693-155.23 83.183-182.44 161.31-16.79-55.553 102.92-159.69 182.44-161.31z"/>
   <path id="path3820" d="m269.95 194.78c72.198 4.6065 170.78 92.923 169.5 122.21-60.27-49.32-103.84-91.22-169.5-122.21z"/>
   <path id="path3822" d="m836.33 118.51c14.91 15.766 89.843 58.737 167.84 89.745 35.831 14.847 73.096 20.516 77.357 27.459 18.491 16.029-224.47 41.158-247-14.701 0-38.892 1.4228-89.813 1.8102-102.5z"/>
   <path id="path3824" d="m1183.8 594.16c190.55 15.019 193.86 84.6 256.47 116.93-51.7-116.4-189.7-123.06-256.5-116.93z"/>
  </g>
  <path id="path3038" d="m833.79 121.38c0.47188 39.849 1.7121 81.948-1.6192 109.81-15.122 40.867-51.109 76.831-84.489 41.992-0.15013-39.576-88.247-37.459-116.28-41.849 73.633-26.003 143.16-60.883 202.39-109.96z" fill="#7fe5ff"/>
  <path id="path3809" d="m565.6 631.47c73.621 44.862 131.6 78.49 164.79 137.48 34.752 21.169 59.608 32.791 104.14 64.862-0.14237-33.737 2.733-58.485 0-116.96-81.09-23.05-134.61-55.5-268.93-85.38z" fill="#7fe5ff"/>
  <g fill="#d0f6ff">
   <path id="path3042" d="m1001.5 249.82c82.866 6.0963 88.914-14.743 119.79-5.221-25.96 13.472-49.287 21.408-119.79 5.221z"/>
   <path id="path3813" d="m1147.3 250.41c-27.814-5.641-25.064 14.098-76.587 12.477 63.956 7.7079 59.682-8.6107 76.587-12.477z"/>
   <path id="path3815" d="m427.69 617.72c-51.701 20.08-105.47-1.8898-188.03 21.787 47.052-25.467 107.04-32.636 188.03-21.787z"/>
   <path id="path3817" d="m834.52 834.34v-109.88c71.636-60.725 158.43-103.37 229.04-114.12-128.21 74.153-89.017 83.561-229.04 224z"/>
  </g>
  <g fill="#aef">
   <path id="path3823" d="m963.39 641.55-21.499 9.3582c12.966 1.2365 21.468 2.5646 32.627-2.5292z"/>
   <path id="path3825" d="m892.06 680.76 4.0468 16.693 39.203-24.281-0.25293-16.946z"/>
   <path id="path3827" d="m872.59 696.44 1.0117 14.417-39.203 31.11 0.25292-11.887-0.25292-5.8173z"/>
   <path id="path3829" d="m1095.4 619.87-46.837-12.218-1.2219 12.626c14.751 10.092 43.163 2.3001 48.059-0.40729z"/>
  </g>
  <path id="path3831" d="m1174 383.17c-12.597 48.275-14.822 75.845 1.8575 112.1-3.6955-75.808-2.6923-87.178-1.8575-112.1z" fill="#d0f6ff"/>
  <path id="path3833" fill="#fff" d="m835.37 117.11c-0.25571 16.35-0.71041 60.048-0.35331 74.571 11.083-79.921 13.835-34.638 75.089-27.782-37.09-20.83-46.63-27.25-74.74-46.79z"/>
  <path id="path3835" fill="#fff" d="m835.5 834.89-0.42349-91.588c10.836 44.952-1.7235 82.746 26.149 63.883z"/>
  <g>
   <path id="path3841" d="m1101.7 604.47c-66.891 8.974-115.94 57.47-145.2 109.01 34.746-35.433 119.44-90.004 145.2-109.01z" fill="#d0f6ff"/>
   <path id="path3847" d="m1376.6 238.25c-3.663 18.777-36.228 26.188-74.896 25.411-11.794 7.5788-23.083 15.158-33.102 22.736 60.779 4.9443 135.49-16.654 108-48.148z" fill="#86e7ff"/>
   <path id="path3849" d="m1386.3 188.92c30.215-1.4488 61.405 6.6751 51.863 52.362-3.4678-22.573-12.87-42.947-51.863-52.362z" fill="#d0f6ff"/>
   <path id="path3043" d="m610.49 669.97c-68.967-28.673-53.173-28.622-85.036-41.908 2.5817-6.7099 48.951 3.3147 47.174 6.7933 7.4458 5.9638 24.222 20.645 37.862 35.115z" fill="#7fe5ff"/>
  </g>
 </g>
 <g id="Text_S">
  <path id="path3014" d="m1103.1 426.66c35.264-84.248-65.189-62.219-9.394 10.735 34.871 36.751 76.529 79.005 54.799 135.65-15.711 46.246-65.681 65.525-112.29 33.239-37.237-35.227-32.829-108.75 43.327-130.4 65.576-24.799 167.51-54.36 246.75-50.223l87.195 112.52c-94.048-21.191-213.21-50.739-330.16-12.062-41.342 19.928-8.0208 59.358 18.474 36.143 22.926-33.167-2.853-51.831-45.815-101.51-24.947-26.256-43.938-108.93 19.572-133.34 77.755-10.488 107.36 55.65 27.552 99.25z" fill="#80e5ff"/>
  <path id="path3796" d="m1104.3 519.51c14.177-4.1837 28.447-8.0881 43.871-8.5304 2.708 4.0059 4.017 11.469 4.2225 14.026-16.723-1.5166-27.199-2.9571-44.641 1.0036z" fill="#1fd2ff"/>
  <path id="path3826" d="m1325.7 426.78c-37.195-0.23019-70.696 4.4649-103.71 9.8138 32.074-0.8861 69.285-5.6338 98.138 1.8566 25.065 14.641 35.873 33.659 54.374 50.925z" fill="#d8f7ff"/>
  <path id="path3845" d="m1000.1 626.48 1.1042 27.974 41.961-9.2019-0.3681-29.446c-13.949 2.9914-27.209 4.6052-42.697 10.674z" fill="#aef"/>
 </g>
 <g id="Text_I" fill="#5df">
  <path id="path3045" d="m1009.9 638.85 44.571-8.2104 1.1729-195.88-53.954 3.5188z"/>
  <path id="path3047" d="m1046.2 276.42c-67.579-0.57995-47.119 140.93-17.594 144.27 28.548 11.704 87.546-137.61 17.594-144.27z"/>
 </g>
 <g id="Text_02">
  <path id="path3039" fill="#2ad4ff" d="m959.44 286.44c-65.54 1.4048-59.181 373.38 14.219 362.97 69.984-5.773 60.85-352.36-5.875-361.25-2.9022-1.2182-5.6795-1.7759-8.3438-1.7188zm5.875 96.719c30.132-1.2214 29.394 173.2 4.6875 185.31-20.085 9.4322-29.538-176.4-4.6875-185.31z"/>
 </g>
 <g id="Text_N2">
  <path id="path3017" d="m825.34 736.71 4.4226-526.1 41.171 30.496 30.496 320.21-7.0374-308.48 42.225 25.804 8.6209 377.62-42.283 27.74-24.983-137.94 5.2943 148.42z" fill="#00c2f3"/>
 </g>
 <g id="Text_E">
  <path id="path2997" d="m756.21 265.77 73.662-39.777-0.85904 132.91-42.648 13.532 0.24892 81.524 41.548-4.812-0.83989 102.46-38.266-7.7152 0.66871 73.196 39.293 11.149 0.85521 98.656-70.715-25.045z" fill="#045"/>
 </g>
 <g id="Text_N">
  <path id="path2995" d="m636.63 290.02 22.149 373.04 45.84 16.358-0.0509-112.49 16.712 112.79 43.842 21.245-3.5806-447.5-49.505 18.021 11.662 270.38-43.802-261.73z" fill="#006680"/>
 </g>
 <g id="Text_O">
  <path id="path2992" fill="#08a" d="m612.53 310.91c-94.882 8.4273-92.721 335.23 12.062 350.88 103.59-3.6535 83.207-352.17-12.062-350.88zm2.78 96.09c31.057 0.23132 33.574 176.56 5.375 180.19-32.278-3.8542-40.431-167.53-7.6562-179.91 0.77821-0.20214 1.5359-0.2868 2.2812-0.28125z"/>
 </g>
 <g id="Text_B">
  <path id="path3049" fill="#00aad4" d="m265.75 456.15c-32.796 38.351-66.588 76.762-129.03 116.86 79.294-29.733 133.71-60.274 328.79-53.716 117.15 14.014 54.236 56.014-28.758 95.005l66.063 40.372 97.259-68.815c66.75-81.55-10.84-103.31-77.99-115.62 76.5-67.6 91.27-127.6 13.76-157.81l-53.217-24.773c-8.9082 8.1033-5.0654-8.3004-65.494 32.475 69.879 14.836 133.43 53.533 62.742 98.733-61.556 27.434-134.76 43.685-214.12 37.289z"/>
 </g>
</svg>
